<svg width="8" height="12" viewBox="0 0 8 12" fill="none" xmlns="http://www.w3.org/2000/svg">
<path d="M0.999964 0.710877C0.90726 0.80339 0.833713 0.913279 0.783531 1.03425C0.73335 1.15523 0.70752 1.28491 0.70752 1.41588C0.70752 1.54684 0.73335 1.67653 0.783531 1.7975C0.833713 1.91847 0.90726 2.02836 0.999964 2.12088L4.87996 6.00088L0.999964 9.88088C0.812986 10.0679 0.707943 10.3214 0.707943 10.5859C0.707943 10.8503 0.812986 11.1039 0.999964 11.2909C1.18694 11.4779 1.44054 11.5829 1.70496 11.5829C1.96939 11.5829 2.22299 11.4779 2.40996 11.2909L6.99996 6.70088C7.09267 6.60836 7.16621 6.49847 7.2164 6.3775C7.26658 6.25653 7.29241 6.12684 7.29241 5.99588C7.29241 5.86491 7.26658 5.73523 7.2164 5.61425C7.16621 5.49328 7.09267 5.38339 6.99996 5.29088L2.40996 0.700876C2.02996 0.320876 1.38996 0.320877 0.999964 0.710877Z" fill="white"/>
</svg>
