<svg width="147" height="30" viewBox="0 0 147 30" fill="none" xmlns="http://www.w3.org/2000/svg">
<g filter="url(#filter0_d_1_1237)">
<path d="M17.0257 6.95443C15.5593 6.95443 14.3294 7.52209 13.5489 8.51548C12.9103 7.52209 11.8932 6.95443 10.545 6.95443C9.29148 6.95443 8.25078 7.45113 7.54122 8.32626V7.04904L4.41913 7.42748V18H7.63583V11.7558C7.63583 10.5023 8.3927 9.72174 9.43339 9.72174C10.4031 9.72174 11.0654 10.4077 11.0654 11.6376V18H14.3057V11.7558C14.3057 10.5023 15.039 9.72174 16.0797 9.72174C17.0494 9.72174 17.7353 10.4077 17.7353 11.6376V18H20.952V11.2355C20.952 8.63374 19.5329 6.95443 17.0257 6.95443ZM28.8642 15.8713C27.6816 15.8713 26.7592 15.3746 26.2152 14.5704L34.0677 12.0397C33.7839 8.77565 31.4896 6.93078 28.675 6.93078C25.3637 6.93078 22.8802 9.43791 22.8802 12.631C22.8802 15.824 25.411 18.3075 28.8406 18.3075C30.6618 18.3075 32.412 17.5979 33.7129 16.5099L32.7905 14.1447C31.4186 15.3746 30.0941 15.8713 28.8642 15.8713ZM28.6986 9.3433C29.6684 9.3433 30.4726 9.79269 30.9219 10.5732L25.6948 12.2762C25.8604 10.5732 27.0666 9.3433 28.6986 9.3433ZM42.5647 6.95443C41.2166 6.95443 40.0813 7.45113 39.3007 8.32626V7.04904L36.1786 7.42748V18H39.3953V11.9214C39.3953 10.5732 40.2468 9.72174 41.4531 9.72174C42.5884 9.72174 43.3689 10.4786 43.3689 11.8031V18H46.6093V11.401C46.6093 8.68104 45.1192 6.95443 42.5647 6.95443ZM55.6887 9.84V7.23826H52.8978V3.59582L49.6811 5.22782V7.23826H48.4039L48.0018 9.84H49.6811V14.2866C49.6811 16.6755 50.982 18.1892 53.5364 18.1892C54.3879 18.1892 55.1447 18.0237 55.6887 17.7871V15.0908C55.3103 15.2327 54.7663 15.3746 54.3169 15.3746C53.3945 15.3746 52.8978 14.8306 52.8978 13.8845V9.84H55.6887ZM62.8862 18.3075C66.2212 18.3075 68.7992 15.824 68.7992 12.631C68.7992 9.41426 66.2212 6.93078 62.8862 6.93078C59.5512 6.93078 56.9495 9.41426 56.9495 12.631C56.9495 15.824 59.5512 18.3075 62.8862 18.3075ZM62.8862 15.5402C61.2542 15.5402 60.0006 14.263 60.0006 12.6073C60.0006 10.9517 61.2542 9.69809 62.8862 9.69809C64.5182 9.69809 65.7481 10.9517 65.7481 12.6073C65.7481 14.263 64.5182 15.5402 62.8862 15.5402ZM73.9222 8.84661V7.04904L70.8947 7.42748V18H74.1114V13.0567C74.1114 10.8807 75.2703 9.91096 77.3754 9.91096V7.02539C75.6724 7.02539 74.5608 7.64035 73.9222 8.84661ZM84.2297 15.8713C83.0471 15.8713 82.1247 15.3746 81.5807 14.5704L89.4332 12.0397C89.1494 8.77565 86.8551 6.93078 84.0405 6.93078C80.7292 6.93078 78.2457 9.43791 78.2457 12.631C78.2457 15.824 80.7765 18.3075 84.2061 18.3075C86.0273 18.3075 87.7775 17.5979 89.0784 16.5099L88.156 14.1447C86.7841 15.3746 85.4596 15.8713 84.2297 15.8713ZM84.0641 9.3433C85.0339 9.3433 85.8381 9.79269 86.2874 10.5732L81.0603 12.2762C81.2259 10.5732 82.4321 9.3433 84.0641 9.3433ZM99.3494 1.27791V8.27896C98.5452 7.42748 97.4335 6.95443 96.1327 6.95443C93.2234 6.95443 90.8109 9.43791 90.8109 12.6073C90.8109 15.8003 93.2234 18.2838 96.1327 18.2838C97.5754 18.2838 98.7817 17.6925 99.6095 16.6755V18H102.566V0.875824L99.3494 1.27791ZM96.7476 15.5402C95.1156 15.5402 93.8857 14.263 93.8857 12.6073C93.8857 10.9753 95.1156 9.69809 96.7476 9.69809C98.356 9.69809 99.6095 10.9753 99.6095 12.6073C99.6095 14.263 98.356 15.5402 96.7476 15.5402ZM107.067 18.2165C107.959 18.2165 108.592 17.5669 108.592 16.7094C108.592 15.8519 107.959 15.2109 107.067 15.2109C106.184 15.2109 105.543 15.8519 105.543 16.7094C105.543 17.5669 106.184 18.2165 107.067 18.2165ZM114.014 18.1472C115.261 18.1472 116.266 17.6189 116.751 16.7354H116.907V18H119.402V11.4864C119.402 9.45092 117.972 8.2556 115.443 8.2556C113.044 8.2556 111.467 9.3643 111.268 11.036L111.26 11.114H113.598L113.615 11.0793C113.815 10.5163 114.395 10.1958 115.305 10.1958C116.344 10.1958 116.907 10.6636 116.907 11.4864V12.2746L114.603 12.4132C112.23 12.5518 110.904 13.5566 110.904 15.2716V15.2889C110.904 17.0212 112.195 18.1472 114.014 18.1472ZM113.373 15.133V15.1157C113.373 14.4227 113.901 14.0156 114.984 13.9463L116.907 13.8251V14.5267C116.907 15.5314 116.032 16.3023 114.863 16.3023C113.988 16.3023 113.373 15.8606 113.373 15.133ZM121.879 21.1615H124.408V16.4755H124.564C125.049 17.5149 126.114 18.1472 127.422 18.1472C129.839 18.1472 131.294 16.3023 131.294 13.2361V13.2187C131.294 10.1785 129.804 8.30757 127.422 8.30757C126.071 8.30757 125.058 8.91389 124.564 9.93597H124.408V8.46348H121.879V21.1615ZM126.556 16.0511C125.231 16.0511 124.382 14.9857 124.382 13.2361V13.2187C124.382 11.4691 125.222 10.4037 126.556 10.4037C127.899 10.4037 128.721 11.4691 128.721 13.2187V13.2361C128.721 14.9857 127.89 16.0511 126.556 16.0511ZM133.364 21.1615H135.893V16.4755H136.049C136.534 17.5149 137.6 18.1472 138.908 18.1472C141.324 18.1472 142.779 16.3023 142.779 13.2361V13.2187C142.779 10.1785 141.29 8.30757 138.908 8.30757C137.556 8.30757 136.543 8.91389 136.049 9.93597H135.893V8.46348H133.364V21.1615ZM138.041 16.0511C136.716 16.0511 135.867 14.9857 135.867 13.2361V13.2187C135.867 11.4691 136.708 10.4037 138.041 10.4037C139.384 10.4037 140.207 11.4691 140.207 13.2187V13.2361C140.207 14.9857 139.375 16.0511 138.041 16.0511Z" fill="#222222"/>
</g>
<defs>
<filter id="filter0_d_1_1237" x="0.419189" y="0.875854" width="146.36" height="28.2856" filterUnits="userSpaceOnUse" color-interpolation-filters="sRGB">
<feFlood flood-opacity="0" result="BackgroundImageFix"/>
<feColorMatrix in="SourceAlpha" type="matrix" values="0 0 0 0 0 0 0 0 0 0 0 0 0 0 0 0 0 0 127 0" result="hardAlpha"/>
<feOffset dy="4"/>
<feGaussianBlur stdDeviation="2"/>
<feComposite in2="hardAlpha" operator="out"/>
<feColorMatrix type="matrix" values="0 0 0 0 0 0 0 0 0 0 0 0 0 0 0 0 0 0 0.25 0"/>
<feBlend mode="normal" in2="BackgroundImageFix" result="effect1_dropShadow_1_1237"/>
<feBlend mode="normal" in="SourceGraphic" in2="effect1_dropShadow_1_1237" result="shape"/>
</filter>
</defs>
</svg>
