<svg width="31" height="32" viewBox="0 0 31 32" fill="none" xmlns="http://www.w3.org/2000/svg">
<g filter="url(#filter0_d_1_1244)">
<path d="M20.8798 15.2256C22.2717 13.2804 22.8951 10.8686 22.6253 8.47288C22.3555 6.07713 21.2124 3.87404 19.4247 2.30438C17.6371 0.734722 15.3366 -0.0857536 12.9837 0.00710196C10.6307 0.0999575 8.3987 1.0993 6.73426 2.80519C5.06982 4.51108 4.09566 6.79772 4.00668 9.20762C3.9177 11.6175 4.72046 13.973 6.25435 15.8027C7.78825 17.6325 9.94016 18.8016 12.2796 19.0762C14.619 19.3508 16.9734 18.7106 18.8717 17.2837H18.8702C18.9134 17.3426 18.9594 17.3985 19.0111 17.453L24.5453 23.1209C24.8148 23.3972 25.1804 23.5524 25.5618 23.5526C25.9431 23.5527 26.3088 23.3977 26.5785 23.1217C26.8483 22.8456 26.9999 22.4711 27 22.0806C27.0001 21.6901 26.8488 21.3155 26.5793 21.0393L21.0451 15.3713C20.9937 15.3181 20.9384 15.2688 20.8798 15.2241V15.2256ZM21.2506 9.56649C21.2506 10.6298 21.0461 11.6827 20.6488 12.6651C20.2515 13.6475 19.6692 14.5401 18.935 15.292C18.2009 16.0438 17.3294 16.6403 16.3702 17.0472C15.411 17.4541 14.3829 17.6635 13.3447 17.6635C12.3065 17.6635 11.2784 17.4541 10.3192 17.0472C9.36002 16.6403 8.48847 16.0438 7.75434 15.292C7.0202 14.5401 6.43785 13.6475 6.04054 12.6651C5.64323 11.6827 5.43874 10.6298 5.43874 9.56649C5.43874 7.41903 6.27168 5.35952 7.75434 3.84103C9.23699 2.32254 11.2479 1.46946 13.3447 1.46946C15.4415 1.46946 17.4524 2.32254 18.935 3.84103C20.4177 5.35952 21.2506 7.41903 21.2506 9.56649Z" fill="#222222"/>
</g>
<defs>
<filter id="filter0_d_1_1244" x="0" y="0" width="31" height="31.5526" filterUnits="userSpaceOnUse" color-interpolation-filters="sRGB">
<feFlood flood-opacity="0" result="BackgroundImageFix"/>
<feColorMatrix in="SourceAlpha" type="matrix" values="0 0 0 0 0 0 0 0 0 0 0 0 0 0 0 0 0 0 127 0" result="hardAlpha"/>
<feOffset dy="4"/>
<feGaussianBlur stdDeviation="2"/>
<feComposite in2="hardAlpha" operator="out"/>
<feColorMatrix type="matrix" values="0 0 0 0 0 0 0 0 0 0 0 0 0 0 0 0 0 0 0.25 0"/>
<feBlend mode="normal" in2="BackgroundImageFix" result="effect1_dropShadow_1_1244"/>
<feBlend mode="normal" in="SourceGraphic" in2="effect1_dropShadow_1_1244" result="shape"/>
</filter>
</defs>
</svg>
