<svg width="139" height="22" viewBox="0 0 139 22" fill="none" xmlns="http://www.w3.org/2000/svg">
<path d="M13.0257 6.95443C11.5593 6.95443 10.3294 7.52209 9.54887 8.51548C8.91026 7.52209 7.89322 6.95443 6.54504 6.95443C5.29148 6.95443 4.25078 7.45113 3.54122 8.32626V7.04904L0.419131 7.42748V18H3.63583V11.7558C3.63583 10.5023 4.3927 9.72174 5.43339 9.72174C6.40313 9.72174 7.06539 10.4077 7.06539 11.6376V18H10.3057V11.7558C10.3057 10.5023 11.039 9.72174 12.0797 9.72174C13.0494 9.72174 13.7353 10.4077 13.7353 11.6376V18H16.952V11.2355C16.952 8.63374 15.5329 6.95443 13.0257 6.95443ZM24.8642 15.8713C23.6816 15.8713 22.7592 15.3746 22.2152 14.5704L30.0677 12.0397C29.7839 8.77565 27.4896 6.93078 24.675 6.93078C21.3637 6.93078 18.8802 9.43791 18.8802 12.631C18.8802 15.824 21.411 18.3075 24.8406 18.3075C26.6618 18.3075 28.412 17.5979 29.7129 16.5099L28.7905 14.1447C27.4186 15.3746 26.0941 15.8713 24.8642 15.8713ZM24.6986 9.3433C25.6684 9.3433 26.4726 9.79269 26.9219 10.5732L21.6948 12.2762C21.8604 10.5732 23.0666 9.3433 24.6986 9.3433ZM38.5647 6.95443C37.2166 6.95443 36.0813 7.45113 35.3007 8.32626V7.04904L32.1786 7.42748V18H35.3953V11.9214C35.3953 10.5732 36.2468 9.72174 37.4531 9.72174C38.5884 9.72174 39.3689 10.4786 39.3689 11.8031V18H42.6093V11.401C42.6093 8.68104 41.1192 6.95443 38.5647 6.95443ZM51.6887 9.84V7.23826H48.8978V3.59582L45.6811 5.22782V7.23826H44.4039L44.0018 9.84H45.6811V14.2866C45.6811 16.6755 46.982 18.1892 49.5364 18.1892C50.3879 18.1892 51.1447 18.0237 51.6887 17.7871V15.0908C51.3103 15.2327 50.7663 15.3746 50.3169 15.3746C49.3945 15.3746 48.8978 14.8306 48.8978 13.8845V9.84H51.6887ZM58.8862 18.3075C62.2212 18.3075 64.7992 15.824 64.7992 12.631C64.7992 9.41426 62.2212 6.93078 58.8862 6.93078C55.5512 6.93078 52.9495 9.41426 52.9495 12.631C52.9495 15.824 55.5512 18.3075 58.8862 18.3075ZM58.8862 15.5402C57.2542 15.5402 56.0006 14.263 56.0006 12.6073C56.0006 10.9517 57.2542 9.69809 58.8862 9.69809C60.5182 9.69809 61.7481 10.9517 61.7481 12.6073C61.7481 14.263 60.5182 15.5402 58.8862 15.5402ZM69.9222 8.84661V7.04904L66.8947 7.42748V18H70.1114V13.0567C70.1114 10.8807 71.2703 9.91096 73.3754 9.91096V7.02539C71.6724 7.02539 70.5608 7.64035 69.9222 8.84661ZM80.2297 15.8713C79.0471 15.8713 78.1247 15.3746 77.5807 14.5704L85.4332 12.0397C85.1494 8.77565 82.8551 6.93078 80.0405 6.93078C76.7292 6.93078 74.2457 9.43791 74.2457 12.631C74.2457 15.824 76.7765 18.3075 80.2061 18.3075C82.0273 18.3075 83.7775 17.5979 85.0784 16.5099L84.156 14.1447C82.7841 15.3746 81.4596 15.8713 80.2297 15.8713ZM80.0641 9.3433C81.0339 9.3433 81.8381 9.79269 82.2874 10.5732L77.0603 12.2762C77.2259 10.5732 78.4321 9.3433 80.0641 9.3433ZM95.3494 1.27791V8.27896C94.5452 7.42748 93.4335 6.95443 92.1327 6.95443C89.2234 6.95443 86.8109 9.43791 86.8109 12.6073C86.8109 15.8003 89.2234 18.2838 92.1327 18.2838C93.5754 18.2838 94.7817 17.6925 95.6095 16.6755V18H98.5661V0.875824L95.3494 1.27791ZM92.7476 15.5402C91.1156 15.5402 89.8857 14.263 89.8857 12.6073C89.8857 10.9753 91.1156 9.69809 92.7476 9.69809C94.356 9.69809 95.6095 10.9753 95.6095 12.6073C95.6095 14.263 94.356 15.5402 92.7476 15.5402ZM103.067 18.2165C103.959 18.2165 104.592 17.5669 104.592 16.7094C104.592 15.8519 103.959 15.2109 103.067 15.2109C102.184 15.2109 101.543 15.8519 101.543 16.7094C101.543 17.5669 102.184 18.2165 103.067 18.2165ZM110.014 18.1472C111.261 18.1472 112.266 17.6189 112.751 16.7354H112.907V18H115.402V11.4864C115.402 9.45092 113.972 8.2556 111.443 8.2556C109.044 8.2556 107.467 9.3643 107.268 11.036L107.26 11.114H109.598L109.615 11.0793C109.815 10.5163 110.395 10.1958 111.305 10.1958C112.344 10.1958 112.907 10.6636 112.907 11.4864V12.2746L110.603 12.4132C108.23 12.5518 106.904 13.5566 106.904 15.2716V15.2889C106.904 17.0212 108.195 18.1472 110.014 18.1472ZM109.373 15.133V15.1157C109.373 14.4227 109.901 14.0156 110.984 13.9463L112.907 13.8251V14.5267C112.907 15.5314 112.032 16.3023 110.863 16.3023C109.988 16.3023 109.373 15.8606 109.373 15.133ZM117.879 21.1615H120.408V16.4755H120.564C121.049 17.5149 122.114 18.1472 123.422 18.1472C125.839 18.1472 127.294 16.3023 127.294 13.2361V13.2187C127.294 10.1785 125.804 8.30757 123.422 8.30757C122.071 8.30757 121.058 8.91389 120.564 9.93597H120.408V8.46348H117.879V21.1615ZM122.556 16.0511C121.231 16.0511 120.382 14.9857 120.382 13.2361V13.2187C120.382 11.4691 121.222 10.4037 122.556 10.4037C123.899 10.4037 124.721 11.4691 124.721 13.2187V13.2361C124.721 14.9857 123.89 16.0511 122.556 16.0511ZM129.364 21.1615H131.893V16.4755H132.049C132.534 17.5149 133.6 18.1472 134.908 18.1472C137.324 18.1472 138.779 16.3023 138.779 13.2361V13.2187C138.779 10.1785 137.29 8.30757 134.908 8.30757C133.556 8.30757 132.543 8.91389 132.049 9.93597H131.893V8.46348H129.364V21.1615ZM134.041 16.0511C132.716 16.0511 131.867 14.9857 131.867 13.2361V13.2187C131.867 11.4691 132.708 10.4037 134.041 10.4037C135.384 10.4037 136.207 11.4691 136.207 13.2187V13.2361C136.207 14.9857 135.375 16.0511 134.041 16.0511Z" fill="#222222"/>
</svg>
