<svg width="19" height="23" viewBox="0 0 19 23" fill="none" xmlns="http://www.w3.org/2000/svg">
<path d="M15.6018 21.505C14.4177 22.6529 13.1248 22.4717 11.8802 21.9279C10.5631 21.3721 9.35475 21.3479 7.96517 21.9279C6.22517 22.6771 5.30683 22.4596 4.26767 21.505C-1.629 15.4271 -0.758999 6.17125 5.93517 5.83292C7.56642 5.9175 8.70225 6.72708 9.65683 6.79958C11.0827 6.50958 12.4481 5.67583 13.9706 5.78458C15.7952 5.92958 17.1727 6.65458 18.0789 7.95958C14.3089 10.2192 15.2031 15.1854 18.6589 16.575C17.9702 18.3875 17.076 20.1879 15.5898 21.5171L15.6018 21.505ZM9.536 5.76042C9.35475 3.06583 11.5418 0.8425 14.0552 0.625C14.4056 3.7425 11.2277 6.0625 9.536 5.76042Z" fill="#222222"/>
</svg>
