<svg width="14" height="14" viewBox="0 0 14 14" fill="none" xmlns="http://www.w3.org/2000/svg">
<path d="M6.68546 0C5.80998 0 4.94307 0.172438 4.13423 0.50747C3.3254 0.842501 2.59047 1.33356 1.97141 1.95262C0.72117 3.20286 0.0187909 4.89856 0.0187909 6.66667C0.0129628 8.20609 0.545986 9.69903 1.52546 10.8867L0.192124 12.22C0.0996191 12.3137 0.036955 12.4328 0.0120389 12.5621C-0.0128772 12.6915 0.00107126 12.8253 0.0521242 12.9467C0.107496 13.0666 0.19726 13.1674 0.310022 13.2363C0.422784 13.3051 0.553458 13.3389 0.685458 13.3333H6.68546C8.45357 13.3333 10.1493 12.631 11.3995 11.3807C12.6497 10.1305 13.3521 8.43478 13.3521 6.66667C13.3521 4.89856 12.6497 3.20286 11.3995 1.95262C10.1493 0.702379 8.45357 0 6.68546 0ZM6.68546 12H2.29212L2.91212 11.38C3.03629 11.2551 3.10599 11.0861 3.10599 10.91C3.10599 10.7339 3.03629 10.5649 2.91212 10.44C2.03918 9.56803 1.49557 8.42036 1.37392 7.19253C1.25226 5.9647 1.56009 4.73267 2.24494 3.70635C2.9298 2.68003 3.94932 1.92291 5.1298 1.56398C6.31028 1.20506 7.5787 1.26654 8.71893 1.73794C9.85917 2.20935 10.8007 3.06152 11.3831 4.14926C11.9655 5.23701 12.1527 6.49303 11.9129 7.70334C11.673 8.91365 11.021 10.0034 10.0678 10.7868C9.11464 11.5703 7.9193 11.999 6.68546 12Z" fill="#848484"/>
</svg>
