<svg width="20" height="20" viewBox="0 0 20 20" fill="none" xmlns="http://www.w3.org/2000/svg">
<g clip-path="url(#clip0_1_1372)">
<path d="M19.4312 8.19767C19.5479 8.86887 19.606 9.54892 19.605 10.2302C19.605 13.2727 18.5175 15.8452 16.625 17.5864H16.6275C14.9725 19.1152 12.6975 20.0002 10 20.0002C7.34783 20.0002 4.8043 18.9466 2.92893 17.0712C1.05357 15.1959 0 12.6523 0 10.0002C0 7.34801 1.05357 4.80447 2.92893 2.9291C4.8043 1.05374 7.34783 0.000171577 10 0.000171577C12.4824 -0.0289014 14.8798 0.903713 16.69 2.60267L13.835 5.45767C12.803 4.47389 11.4256 3.93516 10 3.95767C7.39125 3.95767 5.175 5.71767 4.385 8.08767C3.96613 9.32955 3.96613 10.6745 4.385 11.9164H4.38875C5.1825 14.2827 7.395 16.0427 10.0037 16.0427C11.3512 16.0427 12.5087 15.6977 13.4062 15.0877H13.4025C13.9236 14.7424 14.3694 14.2952 14.7129 13.7729C15.0565 13.2506 15.2906 12.6642 15.4012 12.0489H10V8.19892H19.4312V8.19767Z" fill="#222222"/>
</g>
<defs>
<clipPath id="clip0_1_1372">
<rect width="20" height="20" fill="white"/>
</clipPath>
</defs>
</svg>
