<svg width="15" height="16" viewBox="0 0 15 16" fill="none" xmlns="http://www.w3.org/2000/svg">
<path d="M14.4376 8.04904C14.7493 7.63712 14.9219 7.13244 14.9219 6.60734C14.9219 5.77423 14.4562 4.98566 13.7065 4.54591C13.5136 4.43272 13.2938 4.37315 13.0701 4.37335H8.6207L8.73203 2.09298C8.75801 1.54191 8.56318 1.01867 8.18467 0.61974C7.99891 0.423113 7.7748 0.266669 7.52619 0.160076C7.27758 0.0534836 7.00975 -0.000992701 6.73926 1.36937e-05C5.77441 1.36937e-05 4.9209 0.649428 4.66484 1.57902L3.071 7.34953H0.671875C0.343457 7.34953 0.078125 7.61486 0.078125 7.94328V14.6972C0.078125 15.0256 0.343457 15.2909 0.671875 15.2909H11.8288C11.9995 15.2909 12.1665 15.2575 12.3205 15.1907C13.2037 14.8141 13.7733 13.9513 13.7733 12.9939C13.7733 12.7601 13.7399 12.53 13.6731 12.3073C13.9849 11.8954 14.1574 11.3907 14.1574 10.8656C14.1574 10.6318 14.124 10.4018 14.0572 10.1791C14.3689 9.7672 14.5415 9.26251 14.5415 8.73742C14.5378 8.50363 14.5044 8.27169 14.4376 8.04904ZM1.41406 13.955V8.68546H2.91699V13.955H1.41406ZM13.2223 7.40519L12.8159 7.75773L13.0738 8.22902C13.1588 8.38427 13.2029 8.55858 13.2019 8.73556C13.2019 9.04171 13.0683 9.33302 12.8382 9.53341L12.4318 9.88595L12.6897 10.3572C12.7747 10.5125 12.8188 10.6868 12.8178 10.8638C12.8178 11.1699 12.6842 11.4612 12.4541 11.6616L12.0478 12.0142L12.3057 12.4855C12.3906 12.6407 12.4347 12.815 12.4337 12.992C12.4337 13.4076 12.1888 13.7824 11.8103 13.9531H4.10449V8.62609L5.95068 1.93712C5.99829 1.76568 6.10048 1.61442 6.24178 1.50628C6.38307 1.39813 6.55576 1.33899 6.73369 1.33781C6.87471 1.33781 7.01387 1.37863 7.1252 1.46212C7.30889 1.59943 7.40723 1.80724 7.39609 2.02804L7.21797 5.70929H13.0516C13.3818 5.91154 13.5859 6.25294 13.5859 6.60734C13.5859 6.91349 13.4523 7.20294 13.2223 7.40519Z" fill="#848484"/>
</svg>
