<svg width="16" height="16" viewBox="0 0 16 16" fill="none" xmlns="http://www.w3.org/2000/svg">
<path d="M7.99325 1.33313C4.31325 1.33313 1.33325 4.3198 1.33325 7.9998C1.33325 11.6798 4.31325 14.6665 7.99325 14.6665C11.6799 14.6665 14.6666 11.6798 14.6666 7.9998C14.6666 4.3198 11.6799 1.33313 7.99325 1.33313ZM7.99992 13.3331C5.05325 13.3331 2.66659 10.9465 2.66659 7.9998C2.66659 5.05313 5.05325 2.66646 7.99992 2.66646C10.9466 2.66646 13.3333 5.05313 13.3333 7.9998C13.3333 10.9465 10.9466 13.3331 7.99992 13.3331ZM7.85325 4.66646H7.81325C7.54659 4.66646 7.33325 4.8798 7.33325 5.14646V8.29313C7.33325 8.52646 7.45325 8.74646 7.65992 8.86646L10.4266 10.5265C10.6533 10.6598 10.9466 10.5931 11.0799 10.3665C11.1134 10.3125 11.1357 10.2523 11.1454 10.1895C11.1551 10.1268 11.1521 10.0627 11.1366 10.0011C11.121 9.93952 11.0932 9.8817 11.0549 9.83108C11.0165 9.78046 10.9683 9.73808 10.9133 9.70646L8.33325 8.17313V5.14646C8.33325 4.8798 8.11992 4.66646 7.85325 4.66646Z" fill="#222222"/>
</svg>
