<svg width="20" height="20" viewBox="0 0 20 20" fill="none" xmlns="http://www.w3.org/2000/svg">
<circle cx="10" cy="10" r="10" fill="#F8A002"/>
<path d="M14.5165 9.73291C14.697 9.49443 14.7969 9.20224 14.7969 8.89824C14.7969 8.41591 14.5272 7.95937 14.0933 7.70478C13.9815 7.63925 13.8543 7.60476 13.7248 7.60488H11.1488L11.2133 6.28466C11.2283 5.96562 11.1155 5.66269 10.8964 5.43173C10.7888 5.3179 10.6591 5.22732 10.5152 5.16561C10.3712 5.1039 10.2162 5.07236 10.0596 5.07294C9.50098 5.07294 9.00684 5.44892 8.85859 5.98711L7.93584 9.32793H6.54688C6.35674 9.32793 6.20312 9.48154 6.20312 9.67168V13.5818C6.20312 13.772 6.35674 13.9256 6.54688 13.9256H13.0062C13.105 13.9256 13.2017 13.9062 13.2908 13.8676C13.8021 13.6495 14.1319 13.15 14.1319 12.5957C14.1319 12.4603 14.1126 12.3271 14.0739 12.1982C14.2544 11.9598 14.3543 11.6676 14.3543 11.3636C14.3543 11.2282 14.335 11.095 14.2963 10.9661C14.4768 10.7276 14.5767 10.4354 14.5767 10.1314C14.5745 9.99609 14.5552 9.86181 14.5165 9.73291ZM6.97656 13.1521V10.1014H7.84668V13.1521H6.97656ZM13.8129 9.36015L13.5776 9.56425L13.727 9.83711C13.7761 9.92699 13.8017 10.0279 13.8011 10.1304C13.8011 10.3076 13.7237 10.4763 13.5905 10.5923L13.3553 10.7964L13.5046 11.0692C13.5538 11.1591 13.5793 11.26 13.5787 11.3625C13.5787 11.5397 13.5014 11.7084 13.3682 11.8244L13.1329 12.0285L13.2822 12.3014C13.3314 12.3912 13.3569 12.4922 13.3563 12.5946C13.3563 12.8352 13.2146 13.0522 12.9954 13.1511H8.53418V10.067L9.60303 6.19443C9.63059 6.09517 9.68975 6.0076 9.77155 5.94499C9.85336 5.88238 9.95334 5.84814 10.0563 5.84746C10.138 5.84746 10.2186 5.87109 10.283 5.91943C10.3894 5.99892 10.4463 6.11923 10.4398 6.24707L10.3367 8.37832H13.7141C13.9053 8.49541 14.0234 8.69306 14.0234 8.89824C14.0234 9.07548 13.9461 9.24306 13.8129 9.36015Z" fill="white"/>
</svg>
