<svg width="15" height="18" viewBox="0 0 15 18" fill="none" xmlns="http://www.w3.org/2000/svg">
<path d="M10.8116 11.6968C11.295 11.428 11.8482 11.2749 12.4374 11.2749H12.4394C12.4993 11.2749 12.5273 11.2005 12.4834 11.1591C11.8706 10.5897 11.1706 10.1298 10.4121 9.7983C10.4041 9.79416 10.3962 9.79209 10.3882 9.78796C11.6285 8.85523 12.4354 7.33929 12.4354 5.62895C12.4354 2.79562 10.2224 0.5 7.49204 0.5C4.76169 0.5 2.55064 2.79562 2.55064 5.62895C2.55064 7.33929 3.35756 8.85523 4.5999 9.78796C4.59191 9.79209 4.58392 9.79416 4.57593 9.7983C3.68313 10.1892 2.8822 10.7496 2.19312 11.4652C1.50802 12.1733 0.962591 13.0127 0.587265 13.9366C0.217985 14.8413 0.018688 15.8107 4.99452e-05 16.7927C-0.000483152 16.8148 0.0032559 16.8367 0.0110469 16.8573C0.0188379 16.8778 0.0305232 16.8966 0.0454141 16.9124C0.0603051 16.9282 0.0781005 16.9407 0.0977517 16.9493C0.117403 16.9579 0.138513 16.9623 0.159836 16.9623H1.35624C1.44212 16.9623 1.51403 16.8899 1.51602 16.801C1.55597 15.2044 2.17315 13.7091 3.26568 12.5758C4.39418 11.4032 5.89617 10.7579 7.49403 10.7579C8.62652 10.7579 9.71307 11.0826 10.6498 11.6906C10.6739 11.7063 10.7015 11.7151 10.7299 11.7162C10.7583 11.7173 10.7865 11.7106 10.8116 11.6968ZM7.49403 9.18613C6.57926 9.18613 5.71841 8.81594 5.06927 8.1438C4.74989 7.81395 4.49669 7.42193 4.32427 6.99032C4.15184 6.5587 4.0636 6.09603 4.06462 5.62895C4.06462 4.67968 4.42214 3.78625 5.06927 3.11411C5.71641 2.44197 6.57726 2.07178 7.49403 2.07178C8.41081 2.07178 9.26966 2.44197 9.91879 3.11411C10.2382 3.44396 10.4914 3.83598 10.6638 4.26759C10.8362 4.6992 10.9245 5.16187 10.9234 5.62895C10.9234 6.57822 10.5659 7.47165 9.91879 8.1438C9.26966 8.81594 8.40881 9.18613 7.49403 9.18613ZM14.8402 14.1083H13.1625V12.371C13.1625 12.28 13.0906 12.2056 13.0027 12.2056H11.8842C11.7963 12.2056 11.7244 12.28 11.7244 12.371V14.1083H10.0466C9.95874 14.1083 9.88683 14.1827 9.88683 14.2737V15.4319C9.88683 15.5229 9.95874 15.5973 10.0466 15.5973H11.7244V17.3346C11.7244 17.4255 11.7963 17.5 11.8842 17.5H13.0027C13.0906 17.5 13.1625 17.4255 13.1625 17.3346V15.5973H14.8402C14.9281 15.5973 15 15.5229 15 15.4319V14.2737C15 14.1827 14.9281 14.1083 14.8402 14.1083Z" fill="white"/>
</svg>
