<svg width="29" height="6" viewBox="0 0 29 6" fill="none" xmlns="http://www.w3.org/2000/svg">
<path d="M3.59473 5.34863C5.17188 5.34863 6.25098 4.21973 6.25098 2.72559C6.25098 1.21484 5.17188 0.102539 3.59473 0.102539C2.03418 0.102539 0.938477 1.21484 0.938477 2.72559C0.938477 4.21973 2.03418 5.34863 3.59473 5.34863ZM14.7842 5.34863C16.3613 5.34863 17.4404 4.21973 17.4404 2.72559C17.4404 1.21484 16.3613 0.102539 14.7842 0.102539C13.2236 0.102539 12.1279 1.21484 12.1279 2.72559C12.1279 4.21973 13.2236 5.34863 14.7842 5.34863ZM25.9736 5.34863C27.5508 5.34863 28.6299 4.21973 28.6299 2.72559C28.6299 1.21484 27.5508 0.102539 25.9736 0.102539C24.4131 0.102539 23.3174 1.21484 23.3174 2.72559C23.3174 4.21973 24.4131 5.34863 25.9736 5.34863Z" fill="#222222"/>
</svg>
