<svg width="20" height="20" viewBox="0 0 20 20" fill="none" xmlns="http://www.w3.org/2000/svg">
<circle cx="10.3686" cy="10.3688" r="9.63125" fill="#34B3F1"/>
<path d="M8.69346 9.95005C8.13816 9.95005 7.60561 9.72946 7.21295 9.3368C6.8203 8.94415 6.59971 8.4116 6.59971 7.8563V6.1813C6.59971 6.07024 6.64383 5.96373 6.72236 5.8852C6.80089 5.80667 6.9074 5.76255 7.01846 5.76255H7.43721C7.54827 5.76255 7.65478 5.71843 7.73331 5.6399C7.81184 5.56137 7.85596 5.45486 7.85596 5.3438C7.85596 5.23274 7.81184 5.12623 7.73331 5.0477C7.65478 4.96917 7.54827 4.92505 7.43721 4.92505H7.01846C6.68528 4.92505 6.36575 5.0574 6.13015 5.293C5.89456 5.52859 5.76221 5.84812 5.76221 6.1813V7.8563C5.76275 8.32938 5.87811 8.79525 6.09838 9.21392C6.31865 9.63259 6.63726 9.99153 7.02683 10.2599C7.40112 10.5899 7.70467 10.9923 7.91914 11.4429C8.13361 11.8934 8.25457 12.3827 8.27471 12.8813C8.27471 13.6587 8.58353 14.4043 9.13325 14.954C9.68297 15.5037 10.4285 15.8125 11.206 15.8125C11.9834 15.8125 12.7289 15.5037 13.2787 14.954C13.8284 14.4043 14.1372 13.6587 14.1372 12.8813V12.4039C14.5319 12.302 14.876 12.0596 15.1048 11.7222C15.3336 11.3848 15.4315 10.9755 15.3801 10.5711C15.3287 10.1666 15.1316 9.7948 14.8257 9.5253C14.5198 9.2558 14.1261 9.10711 13.7185 9.10711C13.3108 9.10711 12.9171 9.2558 12.6112 9.5253C12.3053 9.7948 12.1082 10.1666 12.0568 10.5711C12.0054 10.9755 12.1033 11.3848 12.3321 11.7222C12.561 12.0596 12.905 12.302 13.2997 12.4039V12.8813C13.2997 13.4366 13.0791 13.9691 12.6865 14.3618C12.2938 14.7545 11.7613 14.975 11.206 14.975C10.6507 14.975 10.1181 14.7545 9.72545 14.3618C9.3328 13.9691 9.11221 13.4366 9.11221 12.8813C9.1334 12.3821 9.25567 11.8924 9.4716 11.4418C9.68753 10.9912 9.99264 10.5892 10.3685 10.2599C10.7565 9.9906 11.0735 9.63125 11.2922 9.21264C11.511 8.79403 11.6251 8.32863 11.6247 7.8563V6.1813C11.6247 5.84812 11.4924 5.52859 11.2568 5.293C11.0212 5.0574 10.7016 4.92505 10.3685 4.92505H9.94971C9.83865 4.92505 9.73214 4.96917 9.65361 5.0477C9.57508 5.12623 9.53096 5.23274 9.53096 5.3438C9.53096 5.45486 9.57508 5.56137 9.65361 5.6399C9.73214 5.71843 9.83865 5.76255 9.94971 5.76255H10.3685C10.4795 5.76255 10.586 5.80667 10.6646 5.8852C10.7431 5.96373 10.7872 6.07024 10.7872 6.1813V7.8563C10.7872 8.13125 10.7331 8.40352 10.6278 8.65754C10.5226 8.91157 10.3684 9.14238 10.174 9.3368C9.97954 9.53123 9.74873 9.68545 9.4947 9.79067C9.24067 9.89589 8.96841 9.95005 8.69346 9.95005ZM13.7185 11.625C13.4963 11.625 13.2833 11.5368 13.1263 11.3798C12.9692 11.2227 12.881 11.0097 12.881 10.7875C12.881 10.5654 12.9692 10.3524 13.1263 10.1953C13.2833 10.0383 13.4963 9.95005 13.7185 9.95005C13.9406 9.95005 14.1536 10.0383 14.3107 10.1953C14.4677 10.3524 14.556 10.5654 14.556 10.7875C14.556 11.0097 14.4677 11.2227 14.3107 11.3798C14.1536 11.5368 13.9406 11.625 13.7185 11.625Z" fill="white"/>
</svg>
