<svg width="10" height="13" viewBox="0 0 10 13" fill="none" xmlns="http://www.w3.org/2000/svg">
<path d="M1.88892 1.52228H8.88892V2.12505H1.88892V1.52228Z" fill="#222222"/>
<path d="M9.27783 2.61117H1.8345C1.73526 2.60976 1.63732 2.58827 1.54661 2.54798C1.4559 2.5077 1.37429 2.44946 1.3067 2.37678C1.2391 2.3041 1.18693 2.21849 1.15333 2.12509C1.11972 2.0317 1.10538 1.93247 1.11117 1.83339C1.11068 1.6362 1.18511 1.4462 1.3194 1.3018C1.45368 1.15741 1.6378 1.06941 1.8345 1.05561H9.27783C9.38097 1.05561 9.47989 1.01464 9.55282 0.941707C9.62575 0.868776 9.66672 0.769861 9.66672 0.666721C9.66672 0.563581 9.62575 0.464666 9.55282 0.391735C9.47989 0.318804 9.38097 0.277832 9.27783 0.277832H1.8345C1.43145 0.291947 1.04964 0.462046 0.769585 0.752254C0.489535 1.04246 0.333141 1.43009 0.333388 1.83339C0.329626 1.89685 0.329626 1.96048 0.333388 2.02394C0.329641 2.05494 0.329641 2.08628 0.333388 2.11728V11.1667C0.333141 11.57 0.489535 11.9576 0.769585 12.2479C1.04964 12.5381 1.43145 12.7082 1.8345 12.7223H9.27783C9.38097 12.7223 9.47989 12.6813 9.55282 12.6084C9.62575 12.5354 9.66672 12.4365 9.66672 12.3334V3.02728C9.66695 2.92148 9.62686 2.81956 9.55462 2.74226C9.48238 2.66496 9.38341 2.61809 9.27783 2.61117ZM8.88894 11.9445H1.8345C1.6378 11.9307 1.45368 11.8427 1.3194 11.6983C1.18511 11.5539 1.11068 11.3639 1.11117 11.1667V3.21394C1.33228 3.33593 1.58208 3.39636 1.8345 3.38894H8.88894V11.9445Z" fill="#222222"/>
</svg>
